<mxfile host="app.diagrams.net" modified="2022-06-06T15:43:44.404Z" agent="5.0 (Windows)" etag="8eTwKyWHXZP9EsihPTdJ" version="19.0.0" type="github" pages="4">
  <diagram id="jppOx9dZCNa06SVAA-la" name="Page-1">
    <mxGraphModel dx="512" dy="528" grid="1" gridSize="10" guides="1" tooltips="1" connect="1" arrows="1" fold="1" page="1" pageScale="1" pageWidth="827" pageHeight="1169" math="0" shadow="0">
      <root>
        <mxCell id="0" />
        <mxCell id="1" parent="0" />
        <mxCell id="yJxn-blwwG3f1hf65-Mr-1" value="" style="rounded=1;whiteSpace=wrap;html=1;fontFamily=Lucida Console;" vertex="1" parent="1">
          <mxGeometry x="190" y="150" width="280" height="310" as="geometry" />
        </mxCell>
        <mxCell id="yJxn-blwwG3f1hf65-Mr-40" style="edgeStyle=orthogonalEdgeStyle;rounded=0;orthogonalLoop=1;jettySize=auto;html=1;fontSize=15;" edge="1" parent="1" source="yJxn-blwwG3f1hf65-Mr-2" target="yJxn-blwwG3f1hf65-Mr-39">
          <mxGeometry relative="1" as="geometry" />
        </mxCell>
        <mxCell id="yJxn-blwwG3f1hf65-Mr-2" value="" style="rounded=1;whiteSpace=wrap;html=1;strokeWidth=1;fontFamily=Lucida Console;" vertex="1" parent="1">
          <mxGeometry x="560" y="160" width="130" height="300" as="geometry" />
        </mxCell>
        <mxCell id="yJxn-blwwG3f1hf65-Mr-3" style="edgeStyle=orthogonalEdgeStyle;rounded=0;orthogonalLoop=1;jettySize=auto;html=1;fontFamily=Lucida Console;" edge="1" parent="1" source="yJxn-blwwG3f1hf65-Mr-4" target="yJxn-blwwG3f1hf65-Mr-7">
          <mxGeometry relative="1" as="geometry" />
        </mxCell>
        <mxCell id="yJxn-blwwG3f1hf65-Mr-4" value="&lt;div&gt;嵌入式二进制&lt;/div&gt;&lt;div&gt;可执行固件&lt;/div&gt;" style="rounded=1;whiteSpace=wrap;html=1;fontFamily=Lucida Console;" vertex="1" parent="1">
          <mxGeometry x="210" y="172" width="100" height="50" as="geometry" />
        </mxCell>
        <mxCell id="yJxn-blwwG3f1hf65-Mr-5" style="edgeStyle=orthogonalEdgeStyle;rounded=0;orthogonalLoop=1;jettySize=auto;html=1;fontFamily=Lucida Console;" edge="1" parent="1" source="yJxn-blwwG3f1hf65-Mr-7" target="yJxn-blwwG3f1hf65-Mr-12">
          <mxGeometry relative="1" as="geometry" />
        </mxCell>
        <mxCell id="yJxn-blwwG3f1hf65-Mr-6" style="edgeStyle=orthogonalEdgeStyle;rounded=0;orthogonalLoop=1;jettySize=auto;html=1;entryX=0.5;entryY=1;entryDx=0;entryDy=0;fontFamily=Lucida Console;" edge="1" parent="1" target="yJxn-blwwG3f1hf65-Mr-9">
          <mxGeometry relative="1" as="geometry">
            <Array as="points">
              <mxPoint x="260" y="296" />
              <mxPoint x="395" y="296" />
            </Array>
            <mxPoint x="260" y="276" as="sourcePoint" />
            <mxPoint x="395" y="276" as="targetPoint" />
          </mxGeometry>
        </mxCell>
        <mxCell id="yJxn-blwwG3f1hf65-Mr-7" value="符号执行模块" style="rounded=1;whiteSpace=wrap;html=1;fontFamily=Lucida Console;" vertex="1" parent="1">
          <mxGeometry x="210" y="240" width="100" height="40" as="geometry" />
        </mxCell>
        <mxCell id="yJxn-blwwG3f1hf65-Mr-8" style="edgeStyle=orthogonalEdgeStyle;rounded=0;orthogonalLoop=1;jettySize=auto;html=1;entryX=1;entryY=0.5;entryDx=0;entryDy=0;fontFamily=Lucida Console;" edge="1" parent="1" source="yJxn-blwwG3f1hf65-Mr-9" target="yJxn-blwwG3f1hf65-Mr-7">
          <mxGeometry relative="1" as="geometry">
            <Array as="points">
              <mxPoint x="330" y="260" />
              <mxPoint x="330" y="260" />
            </Array>
          </mxGeometry>
        </mxCell>
        <mxCell id="yJxn-blwwG3f1hf65-Mr-9" value="" style="rounded=1;whiteSpace=wrap;html=1;fontFamily=Lucida Console;" vertex="1" parent="1">
          <mxGeometry x="340" y="210" width="110" height="70" as="geometry" />
        </mxCell>
        <mxCell id="yJxn-blwwG3f1hf65-Mr-10" value="" style="rounded=1;whiteSpace=wrap;html=1;fontFamily=Lucida Console;" vertex="1" parent="1">
          <mxGeometry x="203" y="386.5" width="170" height="61.5" as="geometry" />
        </mxCell>
        <mxCell id="yJxn-blwwG3f1hf65-Mr-11" style="edgeStyle=orthogonalEdgeStyle;rounded=0;orthogonalLoop=1;jettySize=auto;html=1;entryX=0.5;entryY=0;entryDx=0;entryDy=0;fontFamily=Lucida Console;" edge="1" parent="1" source="yJxn-blwwG3f1hf65-Mr-12" target="yJxn-blwwG3f1hf65-Mr-13">
          <mxGeometry relative="1" as="geometry" />
        </mxCell>
        <mxCell id="yJxn-blwwG3f1hf65-Mr-12" value="&lt;div&gt;局域网描述符&lt;/div&gt;&lt;div&gt;模拟模块&lt;/div&gt;" style="rounded=1;whiteSpace=wrap;html=1;fontFamily=Lucida Console;" vertex="1" parent="1">
          <mxGeometry x="215" y="317" width="90" height="50" as="geometry" />
        </mxCell>
        <mxCell id="yJxn-blwwG3f1hf65-Mr-13" value="模糊测试模块" style="rounded=1;whiteSpace=wrap;html=1;fontFamily=Lucida Console;" vertex="1" parent="1">
          <mxGeometry x="210" y="401" width="100" height="39" as="geometry" />
        </mxCell>
        <mxCell id="yJxn-blwwG3f1hf65-Mr-14" value="多次处理" style="text;html=1;strokeColor=none;fillColor=none;align=center;verticalAlign=middle;whiteSpace=wrap;rounded=0;fontFamily=Lucida Console;" vertex="1" parent="1">
          <mxGeometry x="340" y="300" width="60" height="30" as="geometry" />
        </mxCell>
        <mxCell id="yJxn-blwwG3f1hf65-Mr-16" value="S2E" style="text;html=1;strokeColor=none;fillColor=none;align=center;verticalAlign=middle;whiteSpace=wrap;rounded=0;dashed=1;fontFamily=Lucida Console;fontSize=18;" vertex="1" parent="1">
          <mxGeometry x="585" y="173" width="80" height="48" as="geometry" />
        </mxCell>
        <mxCell id="yJxn-blwwG3f1hf65-Mr-17" value="AFL" style="text;html=1;strokeColor=none;fillColor=none;align=center;verticalAlign=middle;whiteSpace=wrap;rounded=0;dashed=1;fontFamily=Lucida Console;fontSize=18;" vertex="1" parent="1">
          <mxGeometry x="310" y="388.5" width="60" height="31.5" as="geometry" />
        </mxCell>
        <mxCell id="yJxn-blwwG3f1hf65-Mr-18" value="DMA 检测模块" style="rounded=1;whiteSpace=wrap;html=1;" vertex="1" parent="1">
          <mxGeometry x="350" y="240" width="90" height="30" as="geometry" />
        </mxCell>
        <mxCell id="yJxn-blwwG3f1hf65-Mr-19" value="寄存器处理模块" style="text;html=1;strokeColor=none;fillColor=none;align=center;verticalAlign=middle;whiteSpace=wrap;rounded=0;" vertex="1" parent="1">
          <mxGeometry x="350" y="210" width="90" height="30" as="geometry" />
        </mxCell>
        <mxCell id="yJxn-blwwG3f1hf65-Mr-21" style="edgeStyle=orthogonalEdgeStyle;rounded=0;orthogonalLoop=1;jettySize=auto;html=1;entryX=0.007;entryY=0.336;entryDx=0;entryDy=0;entryPerimeter=0;" edge="1" parent="1" source="yJxn-blwwG3f1hf65-Mr-20" target="yJxn-blwwG3f1hf65-Mr-1">
          <mxGeometry relative="1" as="geometry" />
        </mxCell>
        <mxCell id="yJxn-blwwG3f1hf65-Mr-20" value="&lt;div&gt;MCU&lt;/div&gt;&lt;div&gt;内存结构&lt;br&gt;&lt;/div&gt;" style="shape=document;whiteSpace=wrap;html=1;boundedLbl=1;" vertex="1" parent="1">
          <mxGeometry x="70" y="215" width="80" height="80" as="geometry" />
        </mxCell>
        <mxCell id="yJxn-blwwG3f1hf65-Mr-23" style="edgeStyle=orthogonalEdgeStyle;rounded=0;orthogonalLoop=1;jettySize=auto;html=1;entryX=0.5;entryY=1;entryDx=0;entryDy=0;" edge="1" parent="1" source="yJxn-blwwG3f1hf65-Mr-22" target="yJxn-blwwG3f1hf65-Mr-13">
          <mxGeometry relative="1" as="geometry" />
        </mxCell>
        <mxCell id="yJxn-blwwG3f1hf65-Mr-42" style="edgeStyle=orthogonalEdgeStyle;rounded=0;orthogonalLoop=1;jettySize=auto;html=1;entryX=0.5;entryY=1;entryDx=0;entryDy=0;fontSize=15;" edge="1" parent="1" source="yJxn-blwwG3f1hf65-Mr-22" target="yJxn-blwwG3f1hf65-Mr-27">
          <mxGeometry relative="1" as="geometry" />
        </mxCell>
        <mxCell id="yJxn-blwwG3f1hf65-Mr-22" value="测试用例" style="rounded=1;whiteSpace=wrap;html=1;" vertex="1" parent="1">
          <mxGeometry x="200" y="480" width="120" height="60" as="geometry" />
        </mxCell>
        <mxCell id="yJxn-blwwG3f1hf65-Mr-24" value="&lt;b&gt;&lt;font style=&quot;font-size: 15px;&quot;&gt;DMA安全分析框架&lt;/font&gt;&lt;/b&gt;" style="text;html=1;strokeColor=none;fillColor=none;align=center;verticalAlign=middle;whiteSpace=wrap;rounded=0;" vertex="1" parent="1">
          <mxGeometry x="320" y="160" width="130" height="30" as="geometry" />
        </mxCell>
        <mxCell id="yJxn-blwwG3f1hf65-Mr-25" value="" style="sketch=0;pointerEvents=1;shadow=0;dashed=0;html=1;strokeColor=none;fillColor=#434445;aspect=fixed;labelPosition=center;verticalLabelPosition=bottom;verticalAlign=top;align=center;outlineConnect=0;shape=mxgraph.vvd.cpu;fontSize=15;" vertex="1" parent="1">
          <mxGeometry x="590" y="287" width="70" height="70" as="geometry" />
        </mxCell>
        <mxCell id="yJxn-blwwG3f1hf65-Mr-26" value="物联网设备模拟器" style="text;html=1;strokeColor=none;fillColor=none;align=center;verticalAlign=middle;whiteSpace=wrap;rounded=0;fontSize=18;" vertex="1" parent="1">
          <mxGeometry x="585" y="230" width="80" height="30" as="geometry" />
        </mxCell>
        <mxCell id="yJxn-blwwG3f1hf65-Mr-28" style="edgeStyle=orthogonalEdgeStyle;rounded=0;orthogonalLoop=1;jettySize=auto;html=1;entryX=0;entryY=1;entryDx=0;entryDy=0;fontSize=15;" edge="1" parent="1" source="yJxn-blwwG3f1hf65-Mr-27" target="yJxn-blwwG3f1hf65-Mr-17">
          <mxGeometry relative="1" as="geometry">
            <Array as="points">
              <mxPoint x="340" y="420" />
              <mxPoint x="340" y="420" />
            </Array>
          </mxGeometry>
        </mxCell>
        <mxCell id="yJxn-blwwG3f1hf65-Mr-27" value="&lt;div&gt;外设与MCU&lt;/div&gt;&lt;div&gt;交互接口&lt;/div&gt;" style="rounded=1;whiteSpace=wrap;html=1;fontSize=15;" vertex="1" parent="1">
          <mxGeometry x="560" y="397" width="130" height="63" as="geometry" />
        </mxCell>
        <mxCell id="yJxn-blwwG3f1hf65-Mr-30" value="DMA" style="shape=hexagon;perimeter=hexagonPerimeter2;whiteSpace=wrap;html=1;fixedSize=1;fontSize=15;fillColor=#f8cecc;strokeColor=#b85450;" vertex="1" parent="1">
          <mxGeometry x="440" y="227.5" width="140" height="55" as="geometry" />
        </mxCell>
        <mxCell id="yJxn-blwwG3f1hf65-Mr-32" value="" style="shape=image;html=1;verticalAlign=top;verticalLabelPosition=bottom;labelBackgroundColor=#ffffff;imageAspect=0;aspect=fixed;image=https://cdn0.iconfinder.com/data/icons/construction-2-21/512/construction-industry-building-30-128.png;fontSize=15;" vertex="1" parent="1">
          <mxGeometry x="530" y="236" width="38" height="38" as="geometry" />
        </mxCell>
        <mxCell id="yJxn-blwwG3f1hf65-Mr-34" value="" style="shape=flexArrow;endArrow=classic;html=1;rounded=0;fontSize=18;exitX=0;exitY=0.617;exitDx=0;exitDy=0;exitPerimeter=0;" edge="1" parent="1">
          <mxGeometry width="50" height="50" relative="1" as="geometry">
            <mxPoint x="560" y="348.1" as="sourcePoint" />
            <mxPoint x="470" y="348" as="targetPoint" />
          </mxGeometry>
        </mxCell>
        <mxCell id="yJxn-blwwG3f1hf65-Mr-36" value="&lt;font style=&quot;font-size: 15px;&quot;&gt;运行信息&lt;/font&gt;" style="text;html=1;strokeColor=none;fillColor=none;align=center;verticalAlign=middle;whiteSpace=wrap;rounded=0;fontSize=18;" vertex="1" parent="1">
          <mxGeometry x="485" y="353" width="80" height="23" as="geometry" />
        </mxCell>
        <mxCell id="yJxn-blwwG3f1hf65-Mr-38" style="edgeStyle=orthogonalEdgeStyle;rounded=0;orthogonalLoop=1;jettySize=auto;html=1;entryX=1.008;entryY=0.17;entryDx=0;entryDy=0;entryPerimeter=0;fontSize=15;" edge="1" parent="1" source="yJxn-blwwG3f1hf65-Mr-37" target="yJxn-blwwG3f1hf65-Mr-2">
          <mxGeometry relative="1" as="geometry" />
        </mxCell>
        <mxCell id="yJxn-blwwG3f1hf65-Mr-37" value="" style="shape=image;html=1;verticalAlign=top;verticalLabelPosition=bottom;labelBackgroundColor=#ffffff;imageAspect=0;aspect=fixed;image=https://cdn0.iconfinder.com/data/icons/file-names-vol-6-3/512/46-128.png;fontSize=15;" vertex="1" parent="1">
          <mxGeometry x="730" y="170" width="81" height="81" as="geometry" />
        </mxCell>
        <mxCell id="yJxn-blwwG3f1hf65-Mr-39" value="" style="shape=image;html=1;verticalAlign=top;verticalLabelPosition=bottom;labelBackgroundColor=#ffffff;imageAspect=0;aspect=fixed;image=https://cdn4.iconfinder.com/data/icons/OxeSet/Bug.png;fontSize=15;" vertex="1" parent="1">
          <mxGeometry x="738.5" y="278" width="64" height="64" as="geometry" />
        </mxCell>
        <mxCell id="yJxn-blwwG3f1hf65-Mr-41" value="崩溃信息" style="text;html=1;strokeColor=none;fillColor=none;align=center;verticalAlign=middle;whiteSpace=wrap;rounded=0;fontSize=15;" vertex="1" parent="1">
          <mxGeometry x="736" y="342" width="69" height="30" as="geometry" />
        </mxCell>
      </root>
    </mxGraphModel>
  </diagram>
  <diagram id="lvxb-rbK4UpxgQb6hQRD" name="Page-2">
    <mxGraphModel dx="1345" dy="591" grid="1" gridSize="10" guides="1" tooltips="1" connect="1" arrows="1" fold="1" page="1" pageScale="1" pageWidth="827" pageHeight="1169" math="0" shadow="0">
      <root>
        <mxCell id="0" />
        <mxCell id="1" parent="0" />
        <mxCell id="_MQQ3V7g_58Je7MMSJR6-1" value="" style="rounded=0;whiteSpace=wrap;html=1;fontSize=15;fillColor=#f9f7ed;strokeColor=#36393d;" vertex="1" parent="1">
          <mxGeometry x="60" y="80" width="140" height="460" as="geometry" />
        </mxCell>
        <mxCell id="_MQQ3V7g_58Je7MMSJR6-17" style="edgeStyle=orthogonalEdgeStyle;rounded=0;orthogonalLoop=1;jettySize=auto;html=1;entryX=0.5;entryY=0;entryDx=0;entryDy=0;fontSize=15;" edge="1" parent="1" source="_MQQ3V7g_58Je7MMSJR6-2" target="_MQQ3V7g_58Je7MMSJR6-3">
          <mxGeometry relative="1" as="geometry" />
        </mxCell>
        <mxCell id="_MQQ3V7g_58Je7MMSJR6-2" value="开始" style="rounded=1;whiteSpace=wrap;html=1;fontSize=15;" vertex="1" parent="1">
          <mxGeometry x="100" y="115" width="60" height="30" as="geometry" />
        </mxCell>
        <mxCell id="_MQQ3V7g_58Je7MMSJR6-19" style="edgeStyle=orthogonalEdgeStyle;rounded=0;orthogonalLoop=1;jettySize=auto;html=1;entryX=0.5;entryY=0;entryDx=0;entryDy=0;fontSize=15;" edge="1" parent="1" source="_MQQ3V7g_58Je7MMSJR6-3" target="_MQQ3V7g_58Je7MMSJR6-6">
          <mxGeometry relative="1" as="geometry" />
        </mxCell>
        <mxCell id="_MQQ3V7g_58Je7MMSJR6-3" value="传输配置" style="rounded=1;whiteSpace=wrap;html=1;fontSize=15;fillColor=#d5e8d4;strokeColor=#82b366;" vertex="1" parent="1">
          <mxGeometry x="85" y="170" width="90" height="40" as="geometry" />
        </mxCell>
        <mxCell id="_MQQ3V7g_58Je7MMSJR6-4" value="" style="rounded=0;whiteSpace=wrap;html=1;fontSize=15;fillColor=#eeeeee;strokeColor=#36393d;" vertex="1" parent="1">
          <mxGeometry x="200" y="80" width="140" height="460" as="geometry" />
        </mxCell>
        <mxCell id="_MQQ3V7g_58Je7MMSJR6-5" value="MCU部分" style="text;html=1;strokeColor=none;fillColor=none;align=center;verticalAlign=middle;whiteSpace=wrap;rounded=0;fontSize=15;" vertex="1" parent="1">
          <mxGeometry x="95" y="83" width="70" height="30" as="geometry" />
        </mxCell>
        <mxCell id="_MQQ3V7g_58Je7MMSJR6-23" style="edgeStyle=orthogonalEdgeStyle;rounded=0;orthogonalLoop=1;jettySize=auto;html=1;entryX=0;entryY=0.5;entryDx=0;entryDy=0;fontSize=15;" edge="1" parent="1" source="_MQQ3V7g_58Je7MMSJR6-6" target="_MQQ3V7g_58Je7MMSJR6-9">
          <mxGeometry relative="1" as="geometry">
            <Array as="points">
              <mxPoint x="130" y="310" />
            </Array>
          </mxGeometry>
        </mxCell>
        <mxCell id="_MQQ3V7g_58Je7MMSJR6-6" value="固件触发" style="rounded=1;whiteSpace=wrap;html=1;fontSize=15;dashed=1;" vertex="1" parent="1">
          <mxGeometry x="82.5" y="230" width="95" height="40" as="geometry" />
        </mxCell>
        <mxCell id="_MQQ3V7g_58Je7MMSJR6-22" style="edgeStyle=orthogonalEdgeStyle;rounded=0;orthogonalLoop=1;jettySize=auto;html=1;fontSize=15;" edge="1" parent="1" source="_MQQ3V7g_58Je7MMSJR6-7" target="_MQQ3V7g_58Je7MMSJR6-8">
          <mxGeometry relative="1" as="geometry" />
        </mxCell>
        <mxCell id="_MQQ3V7g_58Je7MMSJR6-7" value="重载配置" style="rounded=1;whiteSpace=wrap;html=1;fontSize=15;" vertex="1" parent="1">
          <mxGeometry x="225" y="170" width="90" height="40" as="geometry" />
        </mxCell>
        <mxCell id="_MQQ3V7g_58Je7MMSJR6-8" value="硬件触发" style="rounded=1;whiteSpace=wrap;html=1;fontSize=15;dashed=1;" vertex="1" parent="1">
          <mxGeometry x="222.5" y="230" width="95" height="40" as="geometry" />
        </mxCell>
        <mxCell id="_MQQ3V7g_58Je7MMSJR6-20" style="edgeStyle=orthogonalEdgeStyle;rounded=0;orthogonalLoop=1;jettySize=auto;html=1;entryX=0.5;entryY=0;entryDx=0;entryDy=0;fontSize=15;" edge="1" parent="1" source="_MQQ3V7g_58Je7MMSJR6-9" target="_MQQ3V7g_58Je7MMSJR6-11">
          <mxGeometry relative="1" as="geometry" />
        </mxCell>
        <mxCell id="_MQQ3V7g_58Je7MMSJR6-21" style="edgeStyle=orthogonalEdgeStyle;rounded=0;orthogonalLoop=1;jettySize=auto;html=1;fontSize=15;entryX=1;entryY=0.5;entryDx=0;entryDy=0;" edge="1" parent="1" source="_MQQ3V7g_58Je7MMSJR6-9" target="_MQQ3V7g_58Je7MMSJR6-15">
          <mxGeometry relative="1" as="geometry">
            <Array as="points">
              <mxPoint x="270" y="355" />
            </Array>
          </mxGeometry>
        </mxCell>
        <mxCell id="_MQQ3V7g_58Je7MMSJR6-9" value="数据传输" style="rounded=1;whiteSpace=wrap;html=1;fontSize=15;fillColor=#d5e8d4;strokeColor=#82b366;" vertex="1" parent="1">
          <mxGeometry x="222.5" y="290" width="95" height="40" as="geometry" />
        </mxCell>
        <mxCell id="_MQQ3V7g_58Je7MMSJR6-24" style="edgeStyle=orthogonalEdgeStyle;rounded=0;orthogonalLoop=1;jettySize=auto;html=1;entryX=1;entryY=0.5;entryDx=0;entryDy=0;fontSize=15;" edge="1" parent="1" source="_MQQ3V7g_58Je7MMSJR6-11" target="_MQQ3V7g_58Je7MMSJR6-7">
          <mxGeometry relative="1" as="geometry">
            <Array as="points">
              <mxPoint x="330" y="430" />
              <mxPoint x="330" y="190" />
            </Array>
          </mxGeometry>
        </mxCell>
        <mxCell id="_MQQ3V7g_58Je7MMSJR6-25" style="edgeStyle=orthogonalEdgeStyle;rounded=0;orthogonalLoop=1;jettySize=auto;html=1;entryX=0.5;entryY=0;entryDx=0;entryDy=0;fontSize=15;" edge="1" parent="1" source="_MQQ3V7g_58Je7MMSJR6-11" target="_MQQ3V7g_58Je7MMSJR6-12">
          <mxGeometry relative="1" as="geometry" />
        </mxCell>
        <mxCell id="_MQQ3V7g_58Je7MMSJR6-27" style="edgeStyle=orthogonalEdgeStyle;rounded=0;orthogonalLoop=1;jettySize=auto;html=1;entryX=1;entryY=0.5;entryDx=0;entryDy=0;fontSize=15;" edge="1" parent="1" source="_MQQ3V7g_58Je7MMSJR6-11" target="_MQQ3V7g_58Je7MMSJR6-16">
          <mxGeometry relative="1" as="geometry" />
        </mxCell>
        <mxCell id="_MQQ3V7g_58Je7MMSJR6-11" value="传输判断" style="rhombus;whiteSpace=wrap;html=1;fontSize=15;" vertex="1" parent="1">
          <mxGeometry x="225" y="400" width="90" height="60" as="geometry" />
        </mxCell>
        <mxCell id="_MQQ3V7g_58Je7MMSJR6-14" style="edgeStyle=orthogonalEdgeStyle;rounded=0;orthogonalLoop=1;jettySize=auto;html=1;fontSize=15;" edge="1" parent="1" source="_MQQ3V7g_58Je7MMSJR6-12" target="_MQQ3V7g_58Je7MMSJR6-13">
          <mxGeometry relative="1" as="geometry" />
        </mxCell>
        <mxCell id="_MQQ3V7g_58Je7MMSJR6-12" value="非法配置" style="rounded=1;whiteSpace=wrap;html=1;fontSize=15;" vertex="1" parent="1">
          <mxGeometry x="230" y="490" width="80" height="40" as="geometry" />
        </mxCell>
        <mxCell id="_MQQ3V7g_58Je7MMSJR6-13" value="结束" style="rounded=1;whiteSpace=wrap;html=1;fontSize=15;" vertex="1" parent="1">
          <mxGeometry x="90" y="490" width="80" height="40" as="geometry" />
        </mxCell>
        <mxCell id="_MQQ3V7g_58Je7MMSJR6-28" style="edgeStyle=orthogonalEdgeStyle;rounded=0;orthogonalLoop=1;jettySize=auto;html=1;entryX=0.5;entryY=0;entryDx=0;entryDy=0;fontSize=15;" edge="1" parent="1" source="_MQQ3V7g_58Je7MMSJR6-15" target="_MQQ3V7g_58Je7MMSJR6-16">
          <mxGeometry relative="1" as="geometry" />
        </mxCell>
        <mxCell id="_MQQ3V7g_58Je7MMSJR6-15" value="中断/事件" style="rounded=1;whiteSpace=wrap;html=1;fontSize=15;dashed=1;" vertex="1" parent="1">
          <mxGeometry x="80" y="330" width="100" height="50" as="geometry" />
        </mxCell>
        <mxCell id="_MQQ3V7g_58Je7MMSJR6-16" value="访问缓冲区" style="rounded=1;whiteSpace=wrap;html=1;fontSize=15;fillColor=#d5e8d4;strokeColor=#82b366;dashed=1;" vertex="1" parent="1">
          <mxGeometry x="80" y="405" width="100" height="50" as="geometry" />
        </mxCell>
        <mxCell id="_MQQ3V7g_58Je7MMSJR6-18" value="&lt;div&gt;硬件部分&lt;/div&gt;&lt;div&gt;DMA控制器&lt;br&gt;&lt;/div&gt;" style="text;html=1;strokeColor=none;fillColor=none;align=center;verticalAlign=middle;whiteSpace=wrap;rounded=0;fontSize=15;" vertex="1" parent="1">
          <mxGeometry x="210" y="90" width="120" height="30" as="geometry" />
        </mxCell>
        <mxCell id="_MQQ3V7g_58Je7MMSJR6-29" value="" style="endArrow=none;html=1;rounded=0;fontSize=15;" edge="1" parent="1">
          <mxGeometry width="50" height="50" relative="1" as="geometry">
            <mxPoint x="80" y="560" as="sourcePoint" />
            <mxPoint x="140" y="560" as="targetPoint" />
          </mxGeometry>
        </mxCell>
        <mxCell id="_MQQ3V7g_58Je7MMSJR6-30" value="" style="endArrow=none;dashed=1;html=1;rounded=0;fontSize=15;" edge="1" parent="1">
          <mxGeometry width="50" height="50" relative="1" as="geometry">
            <mxPoint x="210" y="560" as="sourcePoint" />
            <mxPoint x="260" y="560" as="targetPoint" />
          </mxGeometry>
        </mxCell>
        <mxCell id="_MQQ3V7g_58Je7MMSJR6-31" value="必须" style="text;html=1;strokeColor=none;fillColor=none;align=center;verticalAlign=middle;whiteSpace=wrap;rounded=0;dashed=1;fontSize=15;" vertex="1" parent="1">
          <mxGeometry x="140" y="544" width="60" height="30" as="geometry" />
        </mxCell>
        <mxCell id="_MQQ3V7g_58Je7MMSJR6-32" value="可选" style="text;html=1;strokeColor=none;fillColor=none;align=center;verticalAlign=middle;whiteSpace=wrap;rounded=0;dashed=1;fontSize=15;" vertex="1" parent="1">
          <mxGeometry x="270" y="544" width="60" height="30" as="geometry" />
        </mxCell>
      </root>
    </mxGraphModel>
  </diagram>
  <diagram id="_uZwIqx63JYBGPPEDn6e" name="Page-3">
    <mxGraphModel dx="1865" dy="561" grid="1" gridSize="10" guides="1" tooltips="1" connect="1" arrows="1" fold="1" page="1" pageScale="1" pageWidth="827" pageHeight="1169" math="0" shadow="0">
      <root>
        <mxCell id="0" />
        <mxCell id="1" parent="0" />
        <mxCell id="fMcC9YOlMjDvZuBJBy4k-3" value="" style="rounded=0;whiteSpace=wrap;html=1;fontSize=15;" vertex="1" parent="1">
          <mxGeometry x="440" y="100" width="120" height="180" as="geometry" />
        </mxCell>
        <mxCell id="fm6sJGwQI11isZbYO9Ws-2" value="" style="rounded=0;whiteSpace=wrap;html=1;fontSize=15;" vertex="1" parent="1">
          <mxGeometry x="280" y="80" width="120" height="280" as="geometry" />
        </mxCell>
        <mxCell id="fm6sJGwQI11isZbYO9Ws-3" value="Reserved" style="rounded=0;whiteSpace=wrap;html=1;fontSize=15;fillColor=#eeeeee;strokeColor=#36393d;" vertex="1" parent="1">
          <mxGeometry x="280" y="80" width="120" height="30" as="geometry" />
        </mxCell>
        <mxCell id="fm6sJGwQI11isZbYO9Ws-4" value="Reserved" style="rounded=0;whiteSpace=wrap;html=1;fontSize=15;fillColor=#eeeeee;strokeColor=#36393d;" vertex="1" parent="1">
          <mxGeometry x="280" y="210" width="120" height="30" as="geometry" />
        </mxCell>
        <mxCell id="fm6sJGwQI11isZbYO9Ws-5" value="SRAM" style="text;html=1;strokeColor=none;fillColor=none;align=center;verticalAlign=middle;whiteSpace=wrap;rounded=0;fontSize=15;" vertex="1" parent="1">
          <mxGeometry x="310" y="280" width="60" height="30" as="geometry" />
        </mxCell>
        <mxCell id="fm6sJGwQI11isZbYO9Ws-6" value="" style="group" vertex="1" connectable="0" parent="1">
          <mxGeometry x="-50" y="90" width="120" height="140" as="geometry" />
        </mxCell>
        <mxCell id="fm6sJGwQI11isZbYO9Ws-21" value="" style="group" vertex="1" connectable="0" parent="fm6sJGwQI11isZbYO9Ws-6">
          <mxGeometry y="10" width="120" height="130" as="geometry" />
        </mxCell>
        <mxCell id="ahoLHkTQuk0IsXagPUbg-1" value="" style="rounded=1;whiteSpace=wrap;html=1;fontSize=15;" vertex="1" parent="fm6sJGwQI11isZbYO9Ws-21">
          <mxGeometry width="120" height="130" as="geometry" />
        </mxCell>
        <mxCell id="ahoLHkTQuk0IsXagPUbg-2" value="处理器核" style="text;html=1;strokeColor=none;fillColor=none;align=center;verticalAlign=middle;whiteSpace=wrap;rounded=0;dashed=1;fontSize=15;" vertex="1" parent="fm6sJGwQI11isZbYO9Ws-21">
          <mxGeometry x="25" width="70" height="30" as="geometry" />
        </mxCell>
        <mxCell id="fm6sJGwQI11isZbYO9Ws-1" value="" style="sketch=0;pointerEvents=1;shadow=0;dashed=0;html=1;strokeColor=none;fillColor=#434445;aspect=fixed;labelPosition=center;verticalLabelPosition=bottom;verticalAlign=top;align=center;outlineConnect=0;shape=mxgraph.vvd.cpu;fontSize=15;" vertex="1" parent="fm6sJGwQI11isZbYO9Ws-21">
          <mxGeometry x="25" y="40" width="70" height="70" as="geometry" />
        </mxCell>
        <mxCell id="fm6sJGwQI11isZbYO9Ws-7" value="外设" style="text;html=1;strokeColor=none;fillColor=none;align=center;verticalAlign=middle;whiteSpace=wrap;rounded=0;fontSize=15;" vertex="1" parent="1">
          <mxGeometry x="310" y="120" width="60" height="30" as="geometry" />
        </mxCell>
        <mxCell id="fm6sJGwQI11isZbYO9Ws-9" value="0x4004400" style="text;html=1;strokeColor=none;fillColor=none;align=center;verticalAlign=middle;whiteSpace=wrap;rounded=0;fontSize=15;" vertex="1" parent="1">
          <mxGeometry x="280" y="160" width="80" height="20" as="geometry" />
        </mxCell>
        <mxCell id="fm6sJGwQI11isZbYO9Ws-17" value="" style="rounded=0;whiteSpace=wrap;html=1;fontSize=15;fillColor=#eeeeee;strokeColor=#36393d;" vertex="1" parent="1">
          <mxGeometry x="120" y="190" width="120" height="90" as="geometry" />
        </mxCell>
        <mxCell id="fm6sJGwQI11isZbYO9Ws-18" value="" style="rounded=0;whiteSpace=wrap;html=1;fontSize=15;" vertex="1" parent="1">
          <mxGeometry x="120" y="220" width="120" height="30" as="geometry" />
        </mxCell>
        <mxCell id="fm6sJGwQI11isZbYO9Ws-12" style="edgeStyle=orthogonalEdgeStyle;rounded=0;orthogonalLoop=1;jettySize=auto;html=1;entryX=0;entryY=0.5;entryDx=0;entryDy=0;fontSize=15;" edge="1" parent="1" source="fm6sJGwQI11isZbYO9Ws-11" target="fm6sJGwQI11isZbYO9Ws-9">
          <mxGeometry relative="1" as="geometry" />
        </mxCell>
        <mxCell id="fm6sJGwQI11isZbYO9Ws-19" value="" style="rounded=0;whiteSpace=wrap;html=1;fontSize=15;" vertex="1" parent="1">
          <mxGeometry x="120" y="250" width="120" height="30" as="geometry" />
        </mxCell>
        <mxCell id="fm6sJGwQI11isZbYO9Ws-11" value="源地址" style="text;html=1;strokeColor=none;fillColor=none;align=center;verticalAlign=middle;whiteSpace=wrap;rounded=0;fontSize=15;" vertex="1" parent="1">
          <mxGeometry x="160" y="220" width="50" height="30" as="geometry" />
        </mxCell>
        <mxCell id="fm6sJGwQI11isZbYO9Ws-15" style="edgeStyle=orthogonalEdgeStyle;rounded=0;orthogonalLoop=1;jettySize=auto;html=1;entryX=0;entryY=0.5;entryDx=0;entryDy=0;fontSize=15;" edge="1" parent="1" source="fm6sJGwQI11isZbYO9Ws-13" target="fm6sJGwQI11isZbYO9Ws-14">
          <mxGeometry relative="1" as="geometry" />
        </mxCell>
        <mxCell id="fm6sJGwQI11isZbYO9Ws-13" value="目的地址" style="text;html=1;strokeColor=none;fillColor=none;align=center;verticalAlign=middle;whiteSpace=wrap;rounded=0;fontSize=15;" vertex="1" parent="1">
          <mxGeometry x="152.5" y="250" width="65" height="30" as="geometry" />
        </mxCell>
        <mxCell id="fm6sJGwQI11isZbYO9Ws-28" style="edgeStyle=orthogonalEdgeStyle;rounded=0;orthogonalLoop=1;jettySize=auto;html=1;entryX=0;entryY=0.5;entryDx=0;entryDy=0;fontSize=15;" edge="1" parent="1" source="fm6sJGwQI11isZbYO9Ws-14" target="fm6sJGwQI11isZbYO9Ws-27">
          <mxGeometry relative="1" as="geometry" />
        </mxCell>
        <mxCell id="fm6sJGwQI11isZbYO9Ws-14" value="0x20008000" style="text;html=1;strokeColor=none;fillColor=none;align=center;verticalAlign=middle;whiteSpace=wrap;rounded=0;fontSize=15;" vertex="1" parent="1">
          <mxGeometry x="280" y="250" width="90" height="30" as="geometry" />
        </mxCell>
        <mxCell id="fm6sJGwQI11isZbYO9Ws-16" value="传输描述符" style="text;html=1;strokeColor=none;fillColor=none;align=center;verticalAlign=middle;whiteSpace=wrap;rounded=0;fontSize=15;" vertex="1" parent="1">
          <mxGeometry x="140" y="190" width="80" height="30" as="geometry" />
        </mxCell>
        <mxCell id="fm6sJGwQI11isZbYO9Ws-22" value="ARMv7- 内存表" style="text;html=1;strokeColor=none;fillColor=none;align=center;verticalAlign=middle;whiteSpace=wrap;rounded=0;fontSize=15;" vertex="1" parent="1">
          <mxGeometry x="270" y="50" width="140" height="30" as="geometry" />
        </mxCell>
        <mxCell id="fm6sJGwQI11isZbYO9Ws-23" value="" style="shape=flexArrow;endArrow=classic;html=1;rounded=0;fontSize=15;entryX=0.017;entryY=0.186;entryDx=0;entryDy=0;entryPerimeter=0;exitX=1;exitY=0.25;exitDx=0;exitDy=0;" edge="1" parent="1" source="ahoLHkTQuk0IsXagPUbg-1" target="fm6sJGwQI11isZbYO9Ws-2">
          <mxGeometry width="50" height="50" relative="1" as="geometry">
            <mxPoint x="90" y="160" as="sourcePoint" />
            <mxPoint x="140" y="110" as="targetPoint" />
          </mxGeometry>
        </mxCell>
        <mxCell id="fm6sJGwQI11isZbYO9Ws-24" value="写入" style="text;html=1;strokeColor=none;fillColor=none;align=center;verticalAlign=middle;whiteSpace=wrap;rounded=0;fontSize=15;" vertex="1" parent="1">
          <mxGeometry x="130" y="100" width="60" height="30" as="geometry" />
        </mxCell>
        <mxCell id="fm6sJGwQI11isZbYO9Ws-26" value="" style="endArrow=classic;html=1;rounded=0;fontSize=15;entryX=0.5;entryY=0;entryDx=0;entryDy=0;" edge="1" parent="1" target="fm6sJGwQI11isZbYO9Ws-16">
          <mxGeometry width="50" height="50" relative="1" as="geometry">
            <mxPoint x="180" y="130" as="sourcePoint" />
            <mxPoint x="200" y="140" as="targetPoint" />
          </mxGeometry>
        </mxCell>
        <mxCell id="fm6sJGwQI11isZbYO9Ws-27" value="1@:0x2000800" style="rounded=0;whiteSpace=wrap;html=1;fontSize=15;" vertex="1" parent="1">
          <mxGeometry x="440" y="245" width="120" height="40" as="geometry" />
        </mxCell>
        <mxCell id="fm6sJGwQI11isZbYO9Ws-29" value="size+1" style="text;html=1;strokeColor=none;fillColor=none;align=center;verticalAlign=middle;whiteSpace=wrap;rounded=0;fontSize=15;" vertex="1" parent="1">
          <mxGeometry x="570" y="250" width="60" height="30" as="geometry" />
        </mxCell>
        <mxCell id="fm6sJGwQI11isZbYO9Ws-30" value="2@:0x2000801" style="rounded=0;whiteSpace=wrap;html=1;fontSize=15;" vertex="1" parent="1">
          <mxGeometry x="440" y="205" width="120" height="40" as="geometry" />
        </mxCell>
        <mxCell id="fm6sJGwQI11isZbYO9Ws-31" value="" style="rounded=0;whiteSpace=wrap;html=1;fontSize=15;fillColor=#eeeeee;strokeColor=#36393d;dashed=1;" vertex="1" parent="1">
          <mxGeometry x="440" y="155" width="120" height="30" as="geometry" />
        </mxCell>
        <mxCell id="fm6sJGwQI11isZbYO9Ws-32" value="N@:0x200080N" style="rounded=0;whiteSpace=wrap;html=1;fontSize=15;" vertex="1" parent="1">
          <mxGeometry x="440" y="100" width="120" height="30" as="geometry" />
        </mxCell>
        <mxCell id="fm6sJGwQI11isZbYO9Ws-34" value="size+2" style="text;html=1;strokeColor=none;fillColor=none;align=center;verticalAlign=middle;whiteSpace=wrap;rounded=0;fontSize=15;" vertex="1" parent="1">
          <mxGeometry x="570" y="210" width="60" height="30" as="geometry" />
        </mxCell>
        <mxCell id="fMcC9YOlMjDvZuBJBy4k-1" style="edgeStyle=orthogonalEdgeStyle;rounded=0;orthogonalLoop=1;jettySize=auto;html=1;entryX=0.45;entryY=1.015;entryDx=0;entryDy=0;entryPerimeter=0;fontSize=15;exitX=-0.01;exitY=0.698;exitDx=0;exitDy=0;exitPerimeter=0;" edge="1" parent="1">
          <mxGeometry relative="1" as="geometry">
            <mxPoint x="279.10000000000036" y="270.94000000000005" as="sourcePoint" />
            <mxPoint x="4.000000000000227" y="231.95000000000005" as="targetPoint" />
            <Array as="points">
              <mxPoint x="250" y="271" />
              <mxPoint x="250" y="330" />
              <mxPoint x="4" y="330" />
            </Array>
          </mxGeometry>
        </mxCell>
        <mxCell id="fMcC9YOlMjDvZuBJBy4k-2" value="读" style="text;html=1;strokeColor=none;fillColor=none;align=center;verticalAlign=middle;whiteSpace=wrap;rounded=0;fontSize=15;" vertex="1" parent="1">
          <mxGeometry x="80" y="300" width="60" height="30" as="geometry" />
        </mxCell>
        <mxCell id="fMcC9YOlMjDvZuBJBy4k-4" value="size+N" style="text;html=1;strokeColor=none;fillColor=none;align=center;verticalAlign=middle;whiteSpace=wrap;rounded=0;fontSize=15;" vertex="1" parent="1">
          <mxGeometry x="570" y="100" width="60" height="30" as="geometry" />
        </mxCell>
      </root>
    </mxGraphModel>
  </diagram>
  <diagram id="FmvK1raQEckklbt6laHs" name="Page-4">
    <mxGraphModel dx="1519" dy="374" grid="1" gridSize="10" guides="1" tooltips="1" connect="1" arrows="1" fold="1" page="1" pageScale="1" pageWidth="827" pageHeight="1169" math="0" shadow="0">
      <root>
        <mxCell id="0" />
        <mxCell id="1" parent="0" />
        <mxCell id="peIXkEQDK6Ie4IhEhKUu-25" style="edgeStyle=orthogonalEdgeStyle;rounded=0;orthogonalLoop=1;jettySize=auto;html=1;entryX=0.45;entryY=1.015;entryDx=0;entryDy=0;entryPerimeter=0;fontSize=15;exitX=-0.01;exitY=0.698;exitDx=0;exitDy=0;exitPerimeter=0;" edge="1" parent="1" source="peIXkEQDK6Ie4IhEhKUu-19" target="peIXkEQDK6Ie4IhEhKUu-7">
          <mxGeometry relative="1" as="geometry">
            <Array as="points">
              <mxPoint x="-370" y="381" />
              <mxPoint x="-370" y="440" />
              <mxPoint x="-616" y="440" />
            </Array>
          </mxGeometry>
        </mxCell>
        <mxCell id="peIXkEQDK6Ie4IhEhKUu-1" value="" style="rounded=0;whiteSpace=wrap;html=1;fontSize=15;" vertex="1" parent="1">
          <mxGeometry x="-340" y="190" width="120" height="280" as="geometry" />
        </mxCell>
        <mxCell id="peIXkEQDK6Ie4IhEhKUu-2" value="Reserved" style="rounded=0;whiteSpace=wrap;html=1;fontSize=15;fillColor=#eeeeee;strokeColor=#36393d;" vertex="1" parent="1">
          <mxGeometry x="-340" y="190" width="120" height="30" as="geometry" />
        </mxCell>
        <mxCell id="peIXkEQDK6Ie4IhEhKUu-3" value="Reserved" style="rounded=0;whiteSpace=wrap;html=1;fontSize=15;fillColor=#eeeeee;strokeColor=#36393d;" vertex="1" parent="1">
          <mxGeometry x="-340" y="320" width="120" height="30" as="geometry" />
        </mxCell>
        <mxCell id="peIXkEQDK6Ie4IhEhKUu-4" value="SRAM" style="text;html=1;strokeColor=none;fillColor=none;align=center;verticalAlign=middle;whiteSpace=wrap;rounded=0;fontSize=15;" vertex="1" parent="1">
          <mxGeometry x="-310" y="390" width="60" height="30" as="geometry" />
        </mxCell>
        <mxCell id="peIXkEQDK6Ie4IhEhKUu-5" value="" style="group" vertex="1" connectable="0" parent="1">
          <mxGeometry x="-670" y="200" width="120" height="140" as="geometry" />
        </mxCell>
        <mxCell id="peIXkEQDK6Ie4IhEhKUu-6" value="" style="group" vertex="1" connectable="0" parent="peIXkEQDK6Ie4IhEhKUu-5">
          <mxGeometry y="10" width="120" height="130" as="geometry" />
        </mxCell>
        <mxCell id="peIXkEQDK6Ie4IhEhKUu-7" value="" style="rounded=1;whiteSpace=wrap;html=1;fontSize=15;" vertex="1" parent="peIXkEQDK6Ie4IhEhKUu-6">
          <mxGeometry width="120" height="130" as="geometry" />
        </mxCell>
        <mxCell id="peIXkEQDK6Ie4IhEhKUu-8" value="处理器核" style="text;html=1;strokeColor=none;fillColor=none;align=center;verticalAlign=middle;whiteSpace=wrap;rounded=0;dashed=1;fontSize=15;" vertex="1" parent="peIXkEQDK6Ie4IhEhKUu-6">
          <mxGeometry x="25" width="70" height="30" as="geometry" />
        </mxCell>
        <mxCell id="peIXkEQDK6Ie4IhEhKUu-9" value="" style="sketch=0;pointerEvents=1;shadow=0;dashed=0;html=1;strokeColor=none;fillColor=#434445;aspect=fixed;labelPosition=center;verticalLabelPosition=bottom;verticalAlign=top;align=center;outlineConnect=0;shape=mxgraph.vvd.cpu;fontSize=15;" vertex="1" parent="peIXkEQDK6Ie4IhEhKUu-6">
          <mxGeometry x="25" y="40" width="70" height="70" as="geometry" />
        </mxCell>
        <mxCell id="peIXkEQDK6Ie4IhEhKUu-10" value="外设" style="text;html=1;strokeColor=none;fillColor=none;align=center;verticalAlign=middle;whiteSpace=wrap;rounded=0;fontSize=15;" vertex="1" parent="1">
          <mxGeometry x="-310" y="230" width="60" height="30" as="geometry" />
        </mxCell>
        <mxCell id="peIXkEQDK6Ie4IhEhKUu-11" value="0x4004400" style="text;html=1;strokeColor=none;fillColor=none;align=center;verticalAlign=middle;whiteSpace=wrap;rounded=0;fontSize=15;" vertex="1" parent="1">
          <mxGeometry x="-340" y="270" width="80" height="20" as="geometry" />
        </mxCell>
        <mxCell id="peIXkEQDK6Ie4IhEhKUu-12" value="" style="rounded=0;whiteSpace=wrap;html=1;fontSize=15;fillColor=#eeeeee;strokeColor=#36393d;" vertex="1" parent="1">
          <mxGeometry x="-500" y="300" width="120" height="90" as="geometry" />
        </mxCell>
        <mxCell id="peIXkEQDK6Ie4IhEhKUu-13" value="" style="rounded=0;whiteSpace=wrap;html=1;fontSize=15;" vertex="1" parent="1">
          <mxGeometry x="-500" y="330" width="120" height="30" as="geometry" />
        </mxCell>
        <mxCell id="peIXkEQDK6Ie4IhEhKUu-14" style="edgeStyle=orthogonalEdgeStyle;rounded=0;orthogonalLoop=1;jettySize=auto;html=1;entryX=0;entryY=0.5;entryDx=0;entryDy=0;fontSize=15;" edge="1" parent="1" source="peIXkEQDK6Ie4IhEhKUu-16" target="peIXkEQDK6Ie4IhEhKUu-11">
          <mxGeometry relative="1" as="geometry" />
        </mxCell>
        <mxCell id="peIXkEQDK6Ie4IhEhKUu-15" value="" style="rounded=0;whiteSpace=wrap;html=1;fontSize=15;" vertex="1" parent="1">
          <mxGeometry x="-500" y="360" width="120" height="30" as="geometry" />
        </mxCell>
        <mxCell id="peIXkEQDK6Ie4IhEhKUu-16" value="源地址" style="text;html=1;strokeColor=none;fillColor=none;align=center;verticalAlign=middle;whiteSpace=wrap;rounded=0;fontSize=15;" vertex="1" parent="1">
          <mxGeometry x="-460" y="330" width="50" height="30" as="geometry" />
        </mxCell>
        <mxCell id="peIXkEQDK6Ie4IhEhKUu-17" style="edgeStyle=orthogonalEdgeStyle;rounded=0;orthogonalLoop=1;jettySize=auto;html=1;entryX=0;entryY=0.5;entryDx=0;entryDy=0;fontSize=15;" edge="1" parent="1" source="peIXkEQDK6Ie4IhEhKUu-18" target="peIXkEQDK6Ie4IhEhKUu-19">
          <mxGeometry relative="1" as="geometry" />
        </mxCell>
        <mxCell id="peIXkEQDK6Ie4IhEhKUu-18" value="目的地址" style="text;html=1;strokeColor=none;fillColor=none;align=center;verticalAlign=middle;whiteSpace=wrap;rounded=0;fontSize=15;" vertex="1" parent="1">
          <mxGeometry x="-467.5" y="360" width="65" height="30" as="geometry" />
        </mxCell>
        <mxCell id="peIXkEQDK6Ie4IhEhKUu-27" value="" style="edgeStyle=orthogonalEdgeStyle;rounded=0;orthogonalLoop=1;jettySize=auto;html=1;fontSize=15;" edge="1" parent="1" source="peIXkEQDK6Ie4IhEhKUu-19" target="peIXkEQDK6Ie4IhEhKUu-18">
          <mxGeometry relative="1" as="geometry" />
        </mxCell>
        <mxCell id="peIXkEQDK6Ie4IhEhKUu-19" value="0x20008000" style="text;html=1;strokeColor=none;fillColor=none;align=center;verticalAlign=middle;whiteSpace=wrap;rounded=0;fontSize=15;" vertex="1" parent="1">
          <mxGeometry x="-340" y="360" width="90" height="30" as="geometry" />
        </mxCell>
        <mxCell id="peIXkEQDK6Ie4IhEhKUu-20" value="传输描述符" style="text;html=1;strokeColor=none;fillColor=none;align=center;verticalAlign=middle;whiteSpace=wrap;rounded=0;fontSize=15;" vertex="1" parent="1">
          <mxGeometry x="-480" y="300" width="80" height="30" as="geometry" />
        </mxCell>
        <mxCell id="peIXkEQDK6Ie4IhEhKUu-21" value="ARMv7- 内存表" style="text;html=1;strokeColor=none;fillColor=none;align=center;verticalAlign=middle;whiteSpace=wrap;rounded=0;fontSize=15;" vertex="1" parent="1">
          <mxGeometry x="-350" y="160" width="140" height="30" as="geometry" />
        </mxCell>
        <mxCell id="peIXkEQDK6Ie4IhEhKUu-22" value="" style="shape=flexArrow;endArrow=classic;html=1;rounded=0;fontSize=15;entryX=0.017;entryY=0.186;entryDx=0;entryDy=0;entryPerimeter=0;exitX=1;exitY=0.25;exitDx=0;exitDy=0;" edge="1" parent="1" source="peIXkEQDK6Ie4IhEhKUu-7" target="peIXkEQDK6Ie4IhEhKUu-1">
          <mxGeometry width="50" height="50" relative="1" as="geometry">
            <mxPoint x="-530" y="270" as="sourcePoint" />
            <mxPoint x="-480" y="220" as="targetPoint" />
          </mxGeometry>
        </mxCell>
        <mxCell id="peIXkEQDK6Ie4IhEhKUu-23" value="写入" style="text;html=1;strokeColor=none;fillColor=none;align=center;verticalAlign=middle;whiteSpace=wrap;rounded=0;fontSize=15;" vertex="1" parent="1">
          <mxGeometry x="-490" y="210" width="60" height="30" as="geometry" />
        </mxCell>
        <mxCell id="peIXkEQDK6Ie4IhEhKUu-24" value="" style="endArrow=classic;html=1;rounded=0;fontSize=15;entryX=0.5;entryY=0;entryDx=0;entryDy=0;" edge="1" parent="1" target="peIXkEQDK6Ie4IhEhKUu-20">
          <mxGeometry width="50" height="50" relative="1" as="geometry">
            <mxPoint x="-440" y="240" as="sourcePoint" />
            <mxPoint x="-420" y="250" as="targetPoint" />
          </mxGeometry>
        </mxCell>
        <mxCell id="peIXkEQDK6Ie4IhEhKUu-26" value="读" style="text;html=1;strokeColor=none;fillColor=none;align=center;verticalAlign=middle;whiteSpace=wrap;rounded=0;fontSize=15;" vertex="1" parent="1">
          <mxGeometry x="-540" y="410" width="60" height="30" as="geometry" />
        </mxCell>
      </root>
    </mxGraphModel>
  </diagram>
</mxfile>
